<svg width="24" height="24" viewBox="0 0 24 24" fill="none" xmlns="http://www.w3.org/2000/svg">
<path d="M11.1751 6V5.875H11.0501H9.56877H9.44377V6V9.68724L6.96787 10.3459L6.875 10.3706V10.4667V11.5167V11.6772L7.03066 11.6378L9.44377 11.0272V12.4365L7.01608 13.0623L6.92228 13.0865V13.1833V14.2833V14.4446L7.07848 14.4044L9.44377 13.7946V17.6333V17.732L9.53973 17.7549C10.5226 17.9896 11.4311 18.125 12.2636 18.125C14.3153 18.125 15.7918 17.503 16.7499 16.251C17.7025 15.0061 18.125 13.1603 18.125 10.75V10.625H18H16.5344H16.4094V10.75C16.4094 12.5994 16.1105 14.0227 15.4485 14.981C14.793 15.9301 13.7679 16.4417 12.2636 16.4417C11.9037 16.4417 11.5504 16.4275 11.1751 16.3496V13.347L13.8076 12.6711L13.9015 12.647V12.55V11.45V11.2889L13.7454 11.3289L11.1751 11.9889V10.5803L13.8706 9.88773L13.9645 9.86361V9.76667V8.66667V8.50456L13.8078 8.54577L11.1751 9.23789V6Z" fill="#EB5757" stroke="#EB5757" stroke-width="0.25"/>
</svg>
