<svg width="40" height="40" viewBox="0 0 40 40" fill="none" xmlns="http://www.w3.org/2000/svg">
<path d="M6.66667 9.99967L16.8461 17.6868L16.8495 17.6896C17.9797 18.5185 18.5452 18.9332 19.1646 19.0934C19.712 19.235 20.2875 19.235 20.835 19.0934C21.4549 18.933 22.022 18.5171 23.1543 17.6868C23.1543 17.6868 29.6835 12.6762 33.3333 9.99967M5 26.3333V13.6667C5 11.7998 5 10.8657 5.36331 10.1527C5.68289 9.52546 6.19245 9.0159 6.81966 8.69632C7.5327 8.33301 8.46682 8.33301 10.3337 8.33301H29.667C31.5338 8.33301 32.466 8.33301 33.179 8.69632C33.8062 9.0159 34.3175 9.52546 34.637 10.1527C35 10.865 35 11.798 35 13.6612V26.339C35 28.2022 35 29.1338 34.637 29.8461C34.3175 30.4734 33.8062 30.9838 33.179 31.3034C32.4667 31.6663 31.535 31.6663 29.6718 31.6663H10.3282C8.46499 31.6663 7.532 31.6663 6.81966 31.3034C6.19245 30.9838 5.68289 30.4734 5.36331 29.8461C5 29.1331 5 28.2002 5 26.3333Z" stroke="#144D9A" stroke-width="2" stroke-linecap="round" stroke-linejoin="round"/>
</svg>
