<svg width="24" height="25" viewBox="0 0 24 25" fill="none" xmlns="http://www.w3.org/2000/svg">
<path d="M8 8.5H6.2002C5.08009 8.5 4.51962 8.5 4.0918 8.71799C3.71547 8.90973 3.40973 9.21547 3.21799 9.5918C3 10.0196 3 10.5801 3 11.7002V17.3002C3 18.4203 3 18.9801 3.21799 19.4079C3.40973 19.7842 3.71547 20.0905 4.0918 20.2822C4.5192 20.5 5.07899 20.5 6.19691 20.5H17.8031C18.921 20.5 19.48 20.5 19.9074 20.2822C20.2837 20.0905 20.5905 19.7842 20.7822 19.4079C21 18.9805 21 18.4215 21 17.3036V11.6969C21 10.579 21 10.0192 20.7822 9.5918C20.5905 9.21547 20.2837 8.90973 19.9074 8.71799C19.4796 8.5 18.9203 8.5 17.8002 8.5H16M8 8.5H16M8 8.5C8 6.29086 9.79086 4.5 12 4.5C14.2091 4.5 16 6.29086 16 8.5" stroke="#9B51E0" stroke-width="2" stroke-linecap="round" stroke-linejoin="round"/>
</svg>
